<svg width="1440" height="600" viewBox="0 0 1440 600" fill="none" xmlns="http://www.w3.org/2000/svg">
  <!-- Padrão de hexágonos para o fundo -->
  <pattern id="hexPattern" patternUnits="userSpaceOnUse" width="100" height="100" patternTransform="scale(0.5)">
    <polygon points="50,0 100,25 100,75 50,100 0,75 0,25" fill="none" stroke="#2196F3" stroke-width="1" opacity="0.05"/>
  </pattern>
  <rect width="1440" height="600" fill="url(#hexPattern)"/>
  
  <!-- Círculos decorativos -->
  <circle cx="100" cy="100" r="50" fill="none" stroke="#2196F3" stroke-width="1" opacity="0.1"/>
  <circle cx="100" cy="100" r="30" fill="none" stroke="#2196F3" stroke-width="1" opacity="0.2"/>
  <circle cx="100" cy="100" r="10" fill="#2196F3" opacity="0.3"/>
  
  <circle cx="1340" cy="500" r="50" fill="none" stroke="#00FFFF" stroke-width="1" opacity="0.1"/>
  <circle cx="1340" cy="500" r="30" fill="none" stroke="#00FFFF" stroke-width="1" opacity="0.2"/>
  <circle cx="1340" cy="500" r="10" fill="#00FFFF" opacity="0.3"/>
  
  <!-- Linhas de conexão -->
  <path d="M0 300 C 200 350, 400 250, 600 300 C 800 350, 1000 250, 1200 300 C 1400 350, 1600 250, 1800 300" 
        stroke="#2196F3" stroke-width="1" opacity="0.1" fill="none"/>
  
  <path d="M0 350 C 200 400, 400 300, 600 350 C 800 400, 1000 300, 1200 350 C 1400 400, 1600 300, 1800 350" 
        stroke="#00FFFF" stroke-width="1" opacity="0.1" fill="none"/>
  
  <!-- Ícones abstratos representando funcionalidades -->
  <!-- Gráfico -->
  <path d="M300 200 L300 250 L350 230 L400 210 L450 240 L500 220" 
        stroke="#2196F3" stroke-width="2" opacity="0.5" fill="none"/>
  
  <!-- Lupa -->
  <circle cx="700" cy="220" r="20" stroke="#2196F3" stroke-width="2" opacity="0.5" fill="none"/>
  <line x1="715" y1="235" x2="730" y2="250" stroke="#2196F3" stroke-width="2" opacity="0.5"/>
  
  <!-- Documento -->
  <rect x="900" y="200" width="30" height="40" stroke="#2196F3" stroke-width="2" opacity="0.5" fill="none"/>
  <line x1="910" y1="210" x2="920" y2="210" stroke="#2196F3" stroke-width="2" opacity="0.5"/>
  <line x1="910" y1="220" x2="920" y2="220" stroke="#2196F3" stroke-width="2" opacity="0.5"/>
  <line x1="910" y1="230" x2="920" y2="230" stroke="#2196F3" stroke-width="2" opacity="0.5"/>
  
  <!-- Balão de conversa -->
  <path d="M1100 200 L1100 230 L1130 230 L1130 200 Z" stroke="#2196F3" stroke-width="2" opacity="0.5" fill="none"/>
  <path d="M1110 230 L1105 240 L1115 230" stroke="#2196F3" stroke-width="2" opacity="0.5" fill="none"/>
</svg>