<svg width="1440" height="800" viewBox="0 0 1440 800" fill="none" xmlns="http://www.w3.org/2000/svg">
  <!-- Grade de fundo com efeito de perspectiva -->
  <g opacity="0.1">
    <!-- Linhas horizontais -->
    <path d="M0 100 L1440 100" stroke="#00FFFF" stroke-width="1"/>
    <path d="M0 200 L1440 200" stroke="#00FFFF" stroke-width="1"/>
    <path d="M0 300 L1440 300" stroke="#00FFFF" stroke-width="1"/>
    <path d="M0 400 L1440 400" stroke="#00FFFF" stroke-width="1"/>
    <path d="M0 500 L1440 500" stroke="#00FFFF" stroke-width="1"/>
    <path d="M0 600 L1440 600" stroke="#00FFFF" stroke-width="1"/>
    <path d="M0 700 L1440 700" stroke="#00FFFF" stroke-width="1"/>
    
    <!-- Linhas verticais -->
    <path d="M100 0 L100 800" stroke="#00FFFF" stroke-width="1"/>
    <path d="M300 0 L300 800" stroke="#00FFFF" stroke-width="1"/>
    <path d="M500 0 L500 800" stroke="#00FFFF" stroke-width="1"/>
    <path d="M700 0 L700 800" stroke="#00FFFF" stroke-width="1"/>
    <path d="M900 0 L900 800" stroke="#00FFFF" stroke-width="1"/>
    <path d="M1100 0 L1100 800" stroke="#00FFFF" stroke-width="1"/>
    <path d="M1300 0 L1300 800" stroke="#00FFFF" stroke-width="1"/>
    
    <!-- Linhas diagonais para efeito de perspectiva -->
    <path d="M0 0 L1440 800" stroke="#00FFFF" stroke-width="0.5" stroke-dasharray="5 10"/>
    <path d="M1440 0 L0 800" stroke="#00FFFF" stroke-width="0.5" stroke-dasharray="5 10"/>
  </g>
  
  <!-- Círculos de dados -->
  <circle cx="200" cy="150" r="30" fill="none" stroke="#2196F3" stroke-width="1" opacity="0.2"/>
  <circle cx="200" cy="150" r="20" fill="none" stroke="#2196F3" stroke-width="1" opacity="0.3"/>
  <circle cx="200" cy="150" r="10" fill="#2196F3" opacity="0.4"/>
  
  <circle cx="1200" cy="600" r="40" fill="none" stroke="#00FFFF" stroke-width="1" opacity="0.2"/>
  <circle cx="1200" cy="600" r="30" fill="none" stroke="#00FFFF" stroke-width="1" opacity="0.3"/>
  <circle cx="1200" cy="600" r="20" fill="none" stroke="#00FFFF" stroke-width="1" opacity="0.4"/>
  <circle cx="1200" cy="600" r="10" fill="#00FFFF" opacity="0.5"/>
  
  <!-- Hexágonos (símbolo da democracia) -->
  <polygon points="400,300 425,260 475,260 500,300 475,340 425,340" fill="none" stroke="#2196F3" stroke-width="1" opacity="0.3"/>
  <polygon points="1000,200 1025,160 1075,160 1100,200 1075,240 1025,240" fill="none" stroke="#00FFFF" stroke-width="1" opacity="0.3"/>
  
  <!-- Linhas de conexão -->
  <path d="M200 150 L400 300" stroke="#2196F3" stroke-width="1" opacity="0.2" stroke-dasharray="5 5"/>
  <path d="M500 300 L1000 200" stroke="#00FFFF" stroke-width="1" opacity="0.2" stroke-dasharray="5 5"/>
  <path d="M1100 200 L1200 600" stroke="#00FFFF" stroke-width="1" opacity="0.2" stroke-dasharray="5 5"/>
</svg>